<svg xmlns="http://www.w3.org/2000/svg" width="13.437" height="13.436" viewBox="0 0 13.437 13.436">
  <path id="Union_1" data-name="Union 1" d="M-1154.662-76.625l-4.388-4.387-4.387,4.387a1,1,0,0,1-1.415,0l-.624-.624a1,1,0,0,1,0-1.414l4.388-4.388-4.388-4.387a1,1,0,0,1,0-1.414l.624-.624a1,1,0,0,1,1.415,0l4.387,4.387,4.387-4.387a1,1,0,0,1,1.415,0l.624.624a1,1,0,0,1,0,1.414l-4.387,4.387,4.387,4.387a1,1,0,0,1,0,1.414l-.624.624a1,1,0,0,1-.707.293A1,1,0,0,1-1154.662-76.625Z" transform="translate(1165.769 89.768)" fill="#777"/>
</svg>
