<svg xmlns="http://www.w3.org/2000/svg" width="179.216" height="295.013" viewBox="0 0 179.216 295.013">
  <g id="Group_40" data-name="Group 40" transform="translate(-117.392 -152.987)">
    <path id="Icon_metro-location" data-name="Icon metro-location" d="M97.963,1.928C48.473,1.928,8.355,43.2,8.355,94.119c0,92.191,89.608,202.821,89.608,202.821S187.57,186.311,187.57,94.119c0-50.916-40.119-92.191-89.608-92.191Zm0,148.659c-30.312,0-54.885-25.281-54.885-56.467S67.65,37.652,97.963,37.652s54.885,25.281,54.885,56.467S128.275,150.587,97.963,150.587ZM63.24,94.119C63.24,74.39,78.786,58.4,97.963,58.4s34.723,15.994,34.723,35.724-15.546,35.724-34.723,35.724S63.24,113.849,63.24,94.119Z" transform="translate(109.037 151.059)" fill="#fff"/>
    <path id="Icon_material-location-on" data-name="Icon material-location-on" d="M19.512,0A19.5,19.5,0,0,0,0,19.512C0,34.146,19.512,55.748,19.512,55.748s19.512-21.6,19.512-36.237A19.5,19.5,0,0,0,19.512,0Zm0,26.481a6.969,6.969,0,1,1,6.969-6.969A6.971,6.971,0,0,1,19.512,26.481Z" transform="matrix(0.998, 0.07, -0.07, 0.998, 224.698, 307.596)" fill="#1b7a53"/>
    <path id="Icon_material-location-on-2" data-name="Icon material-location-on" d="M18.84,3A11.332,11.332,0,0,0,7.5,14.34C7.5,22.846,18.84,35.4,18.84,35.4s11.34-12.555,11.34-21.061A11.332,11.332,0,0,0,18.84,3Zm0,15.39a4.05,4.05,0,1,1,4.05-4.05A4.052,4.052,0,0,1,18.84,18.39Z" transform="translate(131.034 288.395)" fill="#1b7a53"/>
  </g>
</svg>
